RBDS012runT45_grf
version=1
nRows=18
nColumns=19
inDegrees=no
endheader
time	ground_force_r_vx	ground_force_r_vy	ground_force_r_vz	ground_force_r_px	ground_force_r_py	ground_force_r_pz	ground_force_r_mx	ground_force_r_my	ground_force_r_mz	ground_force_l_vx	ground_force_l_vy	ground_force_l_vz	ground_force_l_px	ground_force_l_py	ground_force_l_pz	ground_force_l_mx	ground_force_l_my	ground_force_l_mz
      7.49900000	      0.00000000	      0.00000000	      0.00000000	      0.00000000	      0.00000000	      0.00000000	      0.00000000	      0.00000000	      0.00000000	   -175.31938198	   1270.81967175	      7.31102318	      2.41013956	      0.00000000	      0.97278948	     -0.00000000	      4.33669221	     -0.00000000
      7.50000000	      0.00000000	      0.00000000	      0.00000000	      0.00000000	      0.00000000	      0.00000000	      0.00000000	      0.00000000	      0.00000000	   -179.54904255	   1292.76938034	      8.97137421	      2.40893538	      0.00000000	      0.97235192	     -0.00000000	      4.30079709	     -0.00000000
      7.50100000	      0.00000000	      0.00000000	      0.00000000	      0.00000000	      0.00000000	      0.00000000	      0.00000000	      0.00000000	      0.00000000	   -183.77769670	   1312.19671104	     10.87104676	      2.40759845	      0.00000000	      0.97195090	     -0.00000000	      4.28608541	     -0.00000000
      7.50200000	      0.00000000	      0.00000000	      0.00000000	      0.00000000	      0.00000000	      0.00000000	      0.00000000	      0.00000000	      0.00000000	   -188.00635085	   1331.62404174	     12.77071931	      2.40626153	      0.00000000	      0.97154988	     -0.00000000	      4.27137373	     -0.00000000
      7.50300000	      0.00000000	      0.00000000	      0.00000000	      0.00000000	      0.00000000	      0.00000000	      0.00000000	      0.00000000	      0.00000000	   -192.23500500	   1351.05137244	     14.67039185	      2.40492460	      0.00000000	      0.97114887	     -0.00000000	      4.25666205	     -0.00000000
      7.50400000	      0.00000000	      0.00000000	      0.00000000	      0.00000000	      0.00000000	      0.00000000	      0.00000000	      0.00000000	      0.00000000	   -196.37757135	   1368.91001952	     16.70971348	      2.40349195	      0.00000000	      0.97077225	     -0.00000000	      4.25704723	     -0.00000000
      7.50500000	      0.00000000	      0.00000000	      0.00000000	      0.00000000	      0.00000000	      0.00000000	      0.00000000	      0.00000000	      0.00000000	   -200.47709380	   1385.98432479	     18.81885965	      2.40201145	      0.00000000	      0.97040782	     -0.00000000	      4.26498083	     -0.00000000
      7.50600000	      0.00000000	      0.00000000	      0.00000000	      0.00000000	      0.00000000	      0.00000000	      0.00000000	      0.00000000	      0.00000000	   -204.57661624	   1403.05863006	     20.92800581	      2.40053094	      0.00000000	      0.97004340	     -0.00000000	      4.27291443	     -0.00000000
      7.50700000	      0.00000000	      0.00000000	      0.00000000	      0.00000000	      0.00000000	      0.00000000	      0.00000000	      0.00000000	      0.00000000	   -208.58742415	   1419.41919532	     23.09436750	      2.39899945	      0.00000000	      0.96969104	     -0.00000000	      4.28878013	     -0.00000000
      7.50800000	      0.00000000	      0.00000000	      0.00000000	      0.00000000	      0.00000000	      0.00000000	      0.00000000	      0.00000000	      0.00000000	   -212.42080296	   1434.35228055	     25.37516026	      2.39736597	      0.00000000	      0.96936281	     -0.00000000	      4.32051002	     -0.00000000
      7.50900000	      0.00000000	      0.00000000	      0.00000000	      0.00000000	      0.00000000	      0.00000000	      0.00000000	      0.00000000	      0.00000000	   -216.25418178	   1449.28536578	     27.65595301	      2.39573249	      0.00000000	      0.96903457	     -0.00000000	      4.35223991	     -0.00000000
      7.51000000	      0.00000000	      0.00000000	      0.00000000	      0.00000000	      0.00000000	      0.00000000	      0.00000000	      0.00000000	      0.00000000	   -220.08756059	   1464.21845101	     29.93674576	      2.39409901	      0.00000000	      0.96870633	     -0.00000000	      4.38396980	     -0.00000000
      7.51100000	      0.00000000	      0.00000000	      0.00000000	      0.00000000	      0.00000000	      0.00000000	      0.00000000	      0.00000000	      0.00000000	   -223.51426264	   1477.25007339	     32.34435344	      2.39230472	      0.00000000	      0.96841350	     -0.00000000	      4.44022143	     -0.00000000
      7.51200000	      0.00000000	      0.00000000	      0.00000000	      0.00000000	      0.00000000	      0.00000000	      0.00000000	      0.00000000	      0.00000000	   -226.94096468	   1490.28169576	     34.75196112	      2.39051043	      0.00000000	      0.96812068	     -0.00000000	      4.49647306	     -0.00000000
      7.51300000	      0.00000000	      0.00000000	      0.00000000	      0.00000000	      0.00000000	      0.00000000	      0.00000000	      0.00000000	      0.00000000	   -230.36766673	   1503.31331814	     37.15956880	      2.38871615	      0.00000000	      0.96782785	     -0.00000000	      4.55272470	     -0.00000000
      7.51400000	      0.00000000	      0.00000000	      0.00000000	      0.00000000	      0.00000000	      0.00000000	      0.00000000	      0.00000000	      0.00000000	   -233.43093926	   1515.24587305	     39.61803486	      2.38681054	      0.00000000	      0.96755791	     -0.00000000	      4.62545658	     -0.00000000
      7.51500000	      0.00000000	      0.00000000	      0.00000000	      0.00000000	      0.00000000	      0.00000000	      0.00000000	      0.00000000	      0.00000000	   -236.31249703	   1526.62889423	     42.10193010	      2.38484927	      0.00000000	      0.96729942	     -0.00000000	      4.70642859	     -0.00000000
      7.51600000	      0.00000000	      0.00000000	      0.00000000	      0.00000000	      0.00000000	      0.00000000	      0.00000000	      0.00000000	      0.00000000	   -239.19405480	   1538.01191542	     44.58582534	      2.38288800	      0.00000000	      0.96704093	     -0.00000000	      4.78740060	     -0.00000000
